<!DOCTYPE svg PUBLIC "-//W3C//DTD SVG 20010904//EN" "http://www.w3.org/TR/2001/REC-SVG-20010904/DTD/svg10.dtd">
<svg version="1.0" xmlns="http://www.w3.org/2000/svg" width="116px" height="116px" viewBox="0 0 1160 1160" preserveAspectRatio="xMidYMid meet">
<g id="layer101" fill="#fdaccd" stroke="none">
 <path d="M10 580 l0 -570 255 0 c178 0 255 3 255 11 0 6 -9 13 -20 16 -11 3 -20 9 -20 14 0 5 -5 9 -11 9 -17 0 -129 118 -129 135 0 8 -4 15 -10 15 -5 0 -10 7 -10 15 0 8 -4 15 -10 15 -5 0 -13 18 -16 40 -4 22 -10 40 -15 40 -5 0 -9 10 -9 23 0 13 -5 28 -10 33 -6 6 -13 42 -17 80 -5 55 -11 73 -31 92 -20 20 -23 27 -14 50 6 15 13 44 16 65 4 29 17 50 62 93 32 30 71 58 86 61 15 3 28 9 28 14 0 5 13 9 29 9 17 0 33 5 36 10 3 6 22 10 41 10 24 0 34 5 34 15 0 11 -11 15 -40 15 -22 0 -40 4 -40 9 0 5 -18 11 -40 15 -23 3 -49 10 -58 15 -35 19 -90 41 -101 41 -6 0 -11 5 -11 10 0 12 5 13 28 1 43 -23 92 -41 110 -41 12 0 23 -4 27 -9 3 -5 34 -13 70 -16 36 -4 68 -11 71 -16 3 -5 25 -9 49 -9 24 0 46 -4 49 -9 3 -5 44 -12 91 -16 47 -4 87 -11 91 -16 3 -5 18 -9 34 -9 16 0 31 -4 34 -9 3 -5 22 -12 42 -16 38 -7 68 -21 92 -42 7 -7 17 -13 22 -13 5 0 20 -11 34 -25 14 -14 34 -25 46 -25 20 0 20 5 20 220 l0 220 -570 0 -570 0 0 -570z m107 473 c-4 -3 -7 0 -7 7 0 7 3 10 7 7 3 -4 3 -10 0 -14z m110 -60 c-4 -3 -10 -3 -14 0 -3 4 0 7 7 7 7 0 10 -3 7 -7z"/>
 <path d="M727 824 c-7 -7 17 -34 30 -34 11 0 63 -48 63 -59 0 -4 9 -17 20 -29 28 -30 41 -152 16 -152 -13 0 -16 -10 -16 -50 0 -27 -4 -50 -9 -50 -5 0 -11 -24 -15 -52 -7 -54 -26 -108 -37 -108 -4 0 -10 -16 -13 -35 -4 -19 -11 -35 -15 -35 -5 0 -12 -12 -15 -26 -8 -32 -102 -126 -145 -145 -17 -8 -31 -20 -31 -27 0 -10 61 -12 293 -10 l292 3 3 312 2 313 -31 29 c-17 17 -41 33 -53 37 -11 4 -23 10 -26 13 -7 10 -76 41 -89 41 -6 0 -11 4 -11 9 0 5 -20 12 -45 15 -24 4 -47 11 -50 17 -4 5 -17 9 -30 9 -13 0 -27 5 -30 10 -7 11 -48 14 -58 4z"/>
 </g>

</svg>