<!DOCTYPE svg PUBLIC "-//W3C//DTD SVG 20010904//EN" "http://www.w3.org/TR/2001/REC-SVG-20010904/DTD/svg10.dtd">
<svg version="1.0" xmlns="http://www.w3.org/2000/svg" width="450px" height="450px" viewBox="0 0 4500 4500" preserveAspectRatio="xMidYMid meet">
<g id="layer101" fill="#2c1f21" stroke="none">
<path d="M0 2250 l0 -2250 2250 0 2250 0 0 2250 0 2250 -2250 0 -2250 0 0 -2250z"/>
</g>
<g id="layer102" fill="#37373b" stroke="none">
<path d="M0 2250 l0 -2250 2250 0 2250 0 0 2250 0 2250 -2250 0 -2250 0 0 -2250z m1747 213 c-4 -3 -7 0 -7 7 0 7 3 10 7 7 3 -4 3 -10 0 -14z m60 -1150 c-4 -3 -7 0 -7 7 0 7 3 10 7 7 3 -4 3 -10 0 -14z m1013 -37 c0 -3 -5 -8 -12 -12 -7 -4 -8 -3 -4 4 7 12 16 16 16 8z"/>
</g>
<g id="layer103" fill="#3e3e44" stroke="none">
<path d="M0 2250 l0 -2250 2250 0 2250 0 0 2250 0 2250 -2250 0 -2250 0 0 -2250z m761 1683 c-12 -20 -14 -14 -5 12 4 9 9 14 11 11 3 -2 0 -13 -6 -23z m184 21 c12 -3 27 -15 34 -27 13 -21 13 -21 -6 -4 -14 12 -36 17 -77 17 -36 0 -55 4 -51 10 7 11 67 13 100 4z m-40 -43 c-6 -5 -28 -6 -50 -1 l-40 8 50 1 c29 1 45 -3 40 -8z m115 -41 c12 -16 19 -30 16 -30 -2 0 -14 14 -26 30 -12 17 -19 30 -16 30 2 0 14 -13 26 -30z m-45 10 c3 -5 4 -10 1 -10 -3 0 -8 5 -11 10 -3 6 -4 10 -1 10 3 0 8 -4 11 -10z m20 -30 c3 -5 4 -10 1 -10 -3 0 -8 5 -11 10 -3 6 -4 10 -1 10 3 0 8 -4 11 -10z m35 -50 c12 -16 19 -30 16 -30 -2 0 -14 14 -26 30 -12 17 -19 30 -16 30 2 0 14 -13 26 -30z m31 13 c13 -16 12 -17 -3 -4 -10 7 -18 15 -18 17 0 8 8 3 21 -13z m24 -33 c3 -5 4 -10 1 -10 -3 0 -8 5 -11 10 -3 6 -4 10 -1 10 3 0 8 -4 11 -10z m-20 -30 c3 -5 4 -10 1 -10 -3 0 -8 5 -11 10 -3 6 -4 10 -1 10 3 0 8 -4 11 -10z m40 0 c3 -5 4 -10 1 -10 -3 0 -8 5 -11 10 -3 6 -4 10 -1 10 3 0 8 -4 11 -10z m-5 -51 c15 -28 5 -23 -15 7 -9 15 -12 23 -6 20 6 -4 16 -16 21 -27z m45 -65 c9 -15 12 -23 6 -20 -11 7 -35 46 -28 46 3 0 12 -12 22 -26z m30 16 c3 -5 4 -10 1 -10 -3 0 -8 5 -11 10 -3 6 -4 10 -1 10 3 0 8 -4 11 -10z m20 -30 c3 -5 4 -10 1 -10 -3 0 -8 5 -11 10 -3 6 -4 10 -1 10 3 0 8 -4 11 -10z m-5 -50 c12 -16 19 -30 16 -30 -2 0 -14 14 -26 30 -12 17 -19 30 -16 30 2 0 14 -13 26 -30z m40 -2 c15 -21 17 -28 6 -19 -16 13 -41 51 -33 51 2 0 14 -15 27 -32z m-5 -48 c3 -5 4 -10 1 -10 -3 0 -8 5 -11 10 -3 6 -4 10 -1 10 3 0 8 -4 11 -10z m40 0 c3 -5 4 -10 1 -10 -3 0 -8 5 -11 10 -3 6 -4 10 -1 10 3 0 8 -4 11 -10z m-5 -51 c15 -28 5 -23 -15 7 -9 15 -12 23 -6 20 6 -4 16 -16 21 -27z m25 21 c3 -5 4 -10 1 -10 -3 0 -8 5 -11 10 -3 6 -4 10 -1 10 3 0 8 -4 11 -10z m26 -37 c13 -16 12 -17 -3 -4 -17 13 -22 21 -14 21 2 0 10 -8 17 -17z m24 -33 c3 -5 4 -10 1 -10 -3 0 -8 5 -11 10 -3 6 -4 10 -1 10 3 0 8 -4 11 -10z m40 -115 c27 -38 41 -63 33 -55 -8 8 -37 47 -63 85 -27 39 -41 63 -33 55 8 -8 37 -46 63 -85z m-20 85 c3 -5 4 -10 1 -10 -3 0 -8 5 -11 10 -3 6 -4 10 -1 10 3 0 8 -4 11 -10z m40 -56 c9 -15 12 -23 6 -20 -11 7 -35 46 -28 46 3 0 12 -12 22 -26z m36 -51 c13 -16 12 -17 -3 -4 -10 7 -18 15 -18 17 0 8 8 3 21 -13z m24 -33 c3 -5 4 -10 1 -10 -3 0 -8 5 -11 10 -3 6 -4 10 -1 10 3 0 8 -4 11 -10z m-20 -30 c3 -5 4 -10 1 -10 -3 0 -8 5 -11 10 -3 6 -4 10 -1 10 3 0 8 -4 11 -10z m50 -16 c9 -15 12 -23 6 -20 -11 7 -35 46 -28 46 3 0 12 -12 22 -26z m-30 -14 c3 -5 4 -10 1 -10 -3 0 -8 5 -11 10 -3 6 -4 10 -1 10 3 0 8 -4 11 -10z m66 -92 c19 -34 2 -17 -30 30 -25 35 -26 40 -6 17 14 -16 30 -38 36 -47z m4 52 c3 -5 4 -10 1 -10 -3 0 -8 5 -11 10 -3 6 -4 10 -1 10 3 0 8 -4 11 -10z m20 -30 c3 -5 4 -10 1 -10 -3 0 -8 5 -11 10 -3 6 -4 10 -1 10 3 0 8 -4 11 -10z m20 -30 c3 -5 4 -10 1 -10 -3 0 -8 5 -11 10 -3 6 -4 10 -1 10 3 0 8 -4 11 -10z m7 -67 c41 -58 50 -73 45 -73 -2 0 -23 27 -46 60 -23 33 -40 60 -38 60 3 0 20 -21 39 -47z m43 -3 c3 -5 4 -10 1 -10 -3 0 -8 5 -11 10 -3 6 -4 10 -1 10 3 0 8 -4 11 -10z m20 -30 c3 -5 4 -10 1 -10 -3 0 -8 5 -11 10 -3 6 -4 10 -1 10 3 0 8 -4 11 -10z m20 -30 c3 -5 4 -10 1 -10 -3 0 -8 5 -11 10 -3 6 -4 10 -1 10 3 0 8 -4 11 -10z m-14 -37 c13 -16 12 -17 -3 -4 -10 7 -18 15 -18 17 0 8 8 3 21 -13z m49 -13 c12 -16 19 -30 16 -30 -2 0 -14 14 -26 30 -12 17 -19 30 -16 30 2 0 14 -13 26 -30z m-25 -20 c3 -5 4 -10 1 -10 -3 0 -8 5 -11 10 -3 6 -4 10 -1 10 3 0 8 -4 11 -10z m46 -62 c16 -29 2 -21 -22 15 -17 23 -18 28 -6 18 10 -8 23 -23 28 -33z m14 32 c3 -5 4 -10 1 -10 -3 0 -8 5 -11 10 -3 6 -4 10 -1 10 3 0 8 -4 11 -10z m60 -90 c25 -36 30 -46 13 -30 -14 14 -35 43 -48 65 -29 51 -15 36 35 -35z m-4 -42 c20 -37 -1 -16 -31 30 -27 40 -27 42 -5 17 14 -16 30 -38 36 -47z m69 -48 c12 -16 19 -30 16 -30 -2 0 -14 14 -26 30 -12 17 -19 30 -16 30 2 0 14 -13 26 -30z m-45 10 c3 -5 4 -10 1 -10 -3 0 -8 5 -11 10 -3 6 -4 10 -1 10 3 0 8 -4 11 -10z m20 -30 c3 -5 4 -10 1 -10 -3 0 -8 5 -11 10 -3 6 -4 10 -1 10 3 0 8 -4 11 -10z m60 -30 c3 -5 4 -10 1 -10 -3 0 -8 5 -11 10 -3 6 -4 10 -1 10 3 0 8 -4 11 -10z m-10 -40 c3 -5 4 -10 1 -10 -3 0 -8 5 -11 10 -3 6 -4 10 -1 10 3 0 8 -4 11 -10z m20 -30 c3 -5 4 -10 1 -10 -3 0 -8 5 -11 10 -3 6 -4 10 -1 10 3 0 8 -4 11 -10z m70 -40 c3 -5 4 -10 1 -10 -3 0 -8 5 -11 10 -3 6 -4 10 -1 10 3 0 8 -4 11 -10z m-206 -63 c12 -15 12 -17 -3 -11 -9 3 -16 13 -16 22 0 8 1 13 3 11 1 -2 9 -12 16 -22z m206 3 c3 -5 4 -10 1 -10 -3 0 -8 5 -11 10 -3 6 -4 10 -1 10 3 0 8 -4 11 -10z m-218 -57 c-3 -10 -5 -4 -5 12 0 17 2 24 5 18 2 -7 2 -21 0 -30z m230 0 c-3 -10 -5 -4 -5 12 0 17 2 24 5 18 2 -7 2 -21 0 -30z m-32 -23 c4 -6 -17 -10 -55 -10 -38 0 -59 4 -55 10 3 6 28 10 55 10 27 0 52 -4 55 -10z m183 -7 c-10 -2 -28 -2 -40 0 -13 2 -5 4 17 4 22 1 32 -1 23 -4z m-778 -63 c-8 -5 -19 -10 -25 -10 -5 0 -3 5 5 10 8 5 20 10 25 10 6 0 3 -5 -5 -10z m123 3 c-7 -2 -19 -2 -25 0 -7 3 -2 5 12 5 14 0 19 -2 13 -5z m44 1 c-3 -3 -12 -4 -19 -1 -8 3 -5 6 6 6 11 1 17 -2 13 -5z m-182 -54 c3 -5 1 -10 -4 -10 -6 0 -11 5 -11 10 0 6 2 10 4 10 3 0 8 -4 11 -10z m100 -450 c3 -5 4 -10 1 -10 -3 0 -8 5 -11 10 -3 6 -4 10 -1 10 3 0 8 -4 11 -10z m1054 -47 c12 -18 18 -33 13 -33 -5 0 -15 12 -23 28 -28 56 -26 57 10 5z m-486 -106 c8 -6 8 -7 -3 -4 -11 3 -15 20 -16 73 l-1 69 4 -65 c2 -35 9 -68 16 -73z m477 68 c17 -25 29 -45 26 -45 -3 0 -19 20 -36 45 -17 25 -29 45 -26 45 3 0 19 -20 36 -45z m-560 -21 c0 -21 -4 -33 -10 -29 -17 10 -11 65 7 65 2 0 3 -16 3 -36z m611 -1 c13 -16 12 -17 -3 -4 -17 13 -22 21 -14 21 2 0 10 -8 17 -17z m24 -33 c3 -5 4 -10 1 -10 -3 0 -8 5 -11 10 -3 6 -4 10 -1 10 3 0 8 -4 11 -10z m-660 -9 c3 -6 -12 -11 -32 -13 -31 -2 -37 -6 -35 -23 2 -16 1 -17 -7 -5 -7 10 -11 -35 -13 -150 l-4 -165 -2 162 -2 162 26 20 c28 22 59 27 69 12z m193 -36 c-3 -3 -9 2 -12 12 -6 14 -5 15 5 6 7 -7 10 -15 7 -18z m487 15 c3 -5 4 -10 1 -10 -3 0 -8 5 -11 10 -3 6 -4 10 -1 10 3 0 8 -4 11 -10z m-30 -10 c3 -5 4 -10 1 -10 -3 0 -8 5 -11 10 -3 6 -4 10 -1 10 3 0 8 -4 11 -10z m65 -42 c15 -21 17 -28 6 -19 -16 13 -41 51 -33 51 2 0 14 -15 27 -32z m-30 -8 c12 -16 19 -30 16 -30 -2 0 -14 14 -26 30 -12 17 -19 30 -16 30 2 0 14 -13 26 -30z m95 -135 c27 -38 41 -63 33 -55 -8 8 -37 47 -63 85 -27 39 -41 63 -33 55 8 -8 37 -46 63 -85z m0 55 c3 -5 4 -10 1 -10 -3 0 -8 5 -11 10 -3 6 -4 10 -1 10 3 0 8 -4 11 -10z m40 -60 c3 -5 4 -10 1 -10 -3 0 -8 5 -11 10 -3 6 -4 10 -1 10 3 0 8 -4 11 -10z m-616 -92 c1 -15 -3 -30 -9 -33 -6 -4 -10 16 -9 52 1 44 3 52 9 33 4 -14 8 -37 9 -52z m642 55 c13 -16 12 -17 -3 -4 -17 13 -22 21 -14 21 2 0 10 -8 17 -17z m44 -65 c16 -24 22 -38 14 -31 -15 12 -53 73 -46 73 2 0 17 -19 32 -42z m34 -69 c-22 -13 -31 -11 -17 5 7 8 17 12 22 9 4 -3 2 -9 -5 -14z m-1214 -19 c-3 -5 -11 -10 -17 -10 -5 0 -24 -10 -41 -22 -18 -11 -25 -14 -17 -5 13 13 68 47 78 47 2 0 0 -4 -3 -10z m-31 -72 c-16 -18 -32 -37 -36 -42 -5 -6 -8 -7 -8 -3 0 8 60 77 68 77 3 0 -7 -15 -24 -32z m304 -55 l-1 -68 -6 55 c-6 52 -4 80 5 80 2 0 3 -30 2 -67z m270 47 c-7 -10 -14 -17 -17 -15 -4 4 18 35 25 35 2 0 -1 -9 -8 -20z m62 16 c0 -3 -5 -8 -12 -12 -7 -4 -8 -3 -4 4 7 12 16 16 16 8z m-383 -23 c-4 -3 -7 0 -7 7 0 7 3 10 7 7 3 -4 3 -10 0 -14z m351 -28 c-6 -14 -13 -23 -15 -21 -5 5 15 46 22 46 3 0 -1 -11 -7 -25z m-351 -17 c-3 -7 -5 -2 -5 12 0 14 2 19 5 13 2 -7 2 -19 0 -25z m-300 -20 c-3 -8 -6 -5 -6 6 -1 11 2 17 5 13 3 -3 4 -12 1 -19z m593 -15 c0 -21 -3 -24 -9 -14 -5 8 -7 20 -4 28 8 21 13 15 13 -14z m-293 -15 c-3 -7 -5 -2 -5 12 0 14 2 19 5 13 2 -7 2 -19 0 -25z m331 -62 c1 -55 -2 -97 -8 -101 -6 -4 -10 19 -10 63 0 59 8 132 14 132 1 0 3 -42 4 -94z m-678 63 c0 -11 -4 -18 -10 -14 -5 3 -7 12 -3 20 7 21 13 19 13 -6z m43 -19 c-7 -28 -13 -25 -13 6 0 14 4 23 9 20 5 -3 7 -15 4 -26z m586 -87 c-1 -67 -2 -73 -10 -43 -8 32 -3 120 7 120 2 0 4 -35 3 -77z m-612 -60 c-4 -3 -7 0 -7 7 0 7 3 10 7 7 3 -4 3 -10 0 -14z"/>
</g>
<g id="layer104" fill="#233b67" stroke="none">
<path d="M0 2250 l0 -2250 2250 0 2250 0 0 2250 0 2250 -2250 0 -2250 0 0 -2250z m963 1700 c20 -23 107 -153 104 -156 -2 -2 -25 27 -52 66 -43 62 -52 70 -79 69 -25 0 -27 -2 -12 -8 38 -15 -19 -20 -99 -8 -66 9 -88 21 -71 38 6 6 203 5 209 -1z m27 -90 c0 -14 70 -81 79 -75 7 4 61 -66 61 -79 0 -3 11 -17 25 -32 14 -15 23 -34 20 -41 -2 -8 -1 -12 4 -9 12 8 43 -42 35 -56 -4 -6 -3 -8 4 -5 6 4 49 -49 103 -125 51 -73 104 -149 118 -167 14 -19 21 -32 15 -28 -7 4 -14 1 -17 -6 -7 -18 69 -122 78 -107 4 6 -4 22 -18 36 -14 13 -27 34 -30 46 -7 27 -1 20 67 -79 32 -46 54 -83 49 -83 -4 0 1 -8 13 -18 27 -21 227 -312 227 -329 0 -7 4 -10 7 -8 4 3 25 -21 45 -53 21 -31 32 -51 23 -45 -29 24 -27 0 3 -43 16 -24 28 -44 26 -44 -12 0 -126 173 -121 182 4 7 2 8 -4 4 -6 -4 -19 6 -29 21 -9 15 -116 170 -237 343 -286 411 -263 378 -243 361 9 -7 17 -11 17 -8 0 13 -43 77 -51 77 -5 0 -2 -11 7 -25 30 -46 6 -26 -32 28 -106 144 -165 235 -162 249 2 7 -2 12 -9 13 -10 0 -113 136 -113 150 0 3 9 -4 20 -15 11 -11 20 -24 20 -30z m945 -1300 c3 -5 4 -10 1 -10 -3 0 -8 5 -11 10 -3 6 -4 10 -1 10 3 0 8 -4 11 -10z m76 -63 c32 6 35 2 43 -57 6 -35 5 -42 -4 -30 -10 13 -11 12 -6 -3 3 -10 6 -22 6 -25 0 -4 19 -6 43 -4 35 3 46 -1 66 -22 l24 -26 -109 -1 c-60 0 -157 0 -216 1 -100 1 -107 0 -122 -22 -9 -12 -16 -26 -16 -30 0 -19 42 -48 69 -48 41 0 51 -37 50 -179 -1 -75 -4 -105 -9 -86 -6 23 -8 25 -9 8 0 -12 4 -34 9 -48 10 -27 -1 -62 -24 -77 -15 -10 -376 -10 -377 0 -1 4 -4 95 -8 202 l-6 195 -48 3 c-48 3 -48 4 -45 35 l3 32 128 3 c73 1 127 7 127 12 0 6 9 19 20 30 16 16 33 20 80 20 l60 0 0 52 0 53 35 -50 36 -50 70 4 c39 1 75 -2 82 -8 20 -16 8 58 -15 94 l-20 30 26 -30 26 -30 -10 33 c-5 19 -13 39 -17 46 -4 7 1 2 12 -10 14 -16 27 -21 46 -17z m-576 -687 c3 -5 4 -10 1 -10 -3 0 -8 5 -11 10 -3 6 -4 10 -1 10 3 0 8 -4 11 -10z m594 -150 c21 0 43 -6 49 -12 9 -13 23 -324 14 -333 -2 -2 -13 12 -24 33 -15 30 -17 50 -13 102 8 91 -4 154 -31 158 -20 3 -22 -3 -26 -90 -3 -54 -11 -103 -19 -115 -11 -18 -11 -25 -1 -35 9 -9 12 -8 13 8 0 17 1 16 9 -4 6 -13 16 -22 24 -20 8 2 15 -1 16 -7 2 -15 -105 -35 -177 -33 l-63 1 0 156 c0 86 4 161 8 167 13 21 54 36 79 29 21 -5 24 -3 18 14 -3 12 -3 40 0 64 6 40 10 44 35 45 24 0 30 -4 33 -26 4 -24 4 -23 7 8 2 19 6 2 7 -37 l4 -73 38 0z m471 38 c30 -45 61 -83 68 -86 7 -2 -7 24 -30 58 -68 99 -78 114 -78 124 0 5 66 -85 147 -200 232 -330 224 -318 206 -328 -9 -5 -19 -4 -26 4 -9 8 -8 10 6 5 20 -8 23 5 5 23 -16 16 -31 15 -22 0 5 -9 4 -10 -3 -3 -11 10 -333 469 -347 495 -23 41 24 -18 74 -92z m-775 -453 c0 -17 -9 -21 -59 -27 -37 -5 -67 -15 -80 -27 -12 -11 -25 -21 -31 -23 -5 -2 -9 -9 -7 -15 2 -7 -3 -23 -9 -35 -16 -30 -23 -79 -24 -154 0 -49 -3 -60 -17 -61 -44 -4 -46 160 -3 251 23 48 68 96 103 107 6 2 38 4 70 4 50 0 57 -2 57 -20z m155 -118 l0 -64 -30 0 -30 0 0 64 0 63 30 0 30 0 0 -63z m324 51 c-3 -5 -10 -6 -15 -3 -5 3 -6 -1 -3 -10 4 -8 -2 -27 -12 -42 -14 -22 -17 -46 -16 -120 1 -53 -2 -94 -8 -98 -6 -4 -10 6 -11 22 -1 28 -1 28 -10 -4 -5 -18 -13 -33 -18 -33 -15 0 -22 85 -11 133 5 26 10 50 9 54 -1 5 -1 14 0 22 1 11 4 11 18 0 15 -13 15 -12 0 12 -17 25 -16 27 4 53 15 19 29 26 49 24 16 -1 26 -6 24 -10z"/>
</g>
<g id="layer105" fill="#423f46" stroke="none">
<path d="M0 2250 l0 -2250 2250 0 2250 0 0 2250 0 2250 -2250 0 -2250 0 0 -2250z m963 1700 c20 -23 107 -153 104 -156 -2 -2 -25 27 -52 66 -43 62 -52 70 -79 69 -25 0 -27 -2 -12 -8 38 -15 -19 -20 -99 -8 -66 9 -88 21 -71 38 6 6 203 5 209 -1z m27 -90 c0 -14 70 -81 79 -75 7 4 61 -66 61 -79 0 -3 11 -17 25 -32 14 -15 23 -34 20 -41 -2 -8 -1 -12 4 -9 12 8 43 -42 35 -56 -4 -6 -3 -8 4 -5 6 4 49 -49 103 -125 51 -73 104 -149 118 -167 14 -19 21 -32 15 -28 -7 4 -14 1 -17 -6 -7 -18 69 -122 78 -107 4 6 -4 22 -18 36 -14 13 -27 34 -30 46 -7 27 -1 20 67 -79 32 -46 54 -83 49 -83 -4 0 1 -8 13 -18 27 -21 227 -312 227 -329 0 -7 4 -10 7 -8 4 3 25 -21 45 -53 21 -31 32 -51 23 -45 -29 24 -27 0 3 -43 16 -24 28 -44 26 -44 -12 0 -126 173 -121 182 4 7 2 8 -4 4 -6 -4 -19 6 -29 21 -9 15 -116 170 -237 343 -286 411 -263 378 -243 361 9 -7 17 -11 17 -8 0 13 -43 77 -51 77 -5 0 -2 -11 7 -25 30 -46 6 -26 -32 28 -106 144 -165 235 -162 249 2 7 -2 12 -9 13 -10 0 -113 136 -113 150 0 3 9 -4 20 -15 11 -11 20 -24 20 -30z m945 -1300 c3 -5 4 -10 1 -10 -3 0 -8 5 -11 10 -3 6 -4 10 -1 10 3 0 8 -4 11 -10z m76 -63 c32 6 35 2 43 -57 6 -35 5 -42 -4 -30 -10 13 -11 12 -6 -3 3 -10 6 -22 6 -25 0 -4 19 -6 43 -4 35 3 46 -1 66 -22 l24 -26 -109 -1 c-60 0 -157 0 -216 1 -100 1 -107 0 -122 -22 -9 -12 -16 -26 -16 -30 0 -19 42 -48 69 -48 41 0 51 -37 50 -179 -1 -75 -4 -105 -9 -86 -6 23 -8 25 -9 8 0 -12 4 -34 9 -48 10 -27 -1 -62 -24 -77 -15 -10 -376 -10 -377 0 -1 4 -4 95 -8 202 l-6 195 -48 3 c-48 3 -48 4 -45 35 l3 32 128 3 c73 1 127 7 127 12 0 6 9 19 20 30 16 16 33 20 80 20 l60 0 0 52 0 53 35 -50 36 -50 70 4 c39 1 75 -2 82 -8 20 -16 8 58 -15 94 l-20 30 26 -30 26 -30 -10 33 c-5 19 -13 39 -17 46 -4 7 1 2 12 -10 14 -16 27 -21 46 -17z m-576 -687 c3 -5 4 -10 1 -10 -3 0 -8 5 -11 10 -3 6 -4 10 -1 10 3 0 8 -4 11 -10z m594 -150 c21 0 43 -6 49 -12 9 -13 23 -324 14 -333 -2 -2 -13 12 -24 33 -15 30 -17 50 -13 102 8 91 -4 154 -31 158 -20 3 -22 -3 -26 -90 -3 -54 -11 -103 -19 -115 -11 -18 -11 -25 -1 -35 9 -9 12 -8 13 8 0 17 1 16 9 -4 6 -13 16 -22 24 -20 8 2 15 -1 16 -7 2 -15 -105 -35 -177 -33 l-63 1 0 156 c0 86 4 161 8 167 13 21 54 36 79 29 21 -5 24 -3 18 14 -3 12 -3 40 0 64 6 40 10 44 35 45 24 0 30 -4 33 -26 4 -24 4 -23 7 8 2 19 6 2 7 -37 l4 -73 38 0z m471 38 c30 -45 61 -83 68 -86 7 -2 -7 24 -30 58 -68 99 -78 114 -78 124 0 5 66 -85 147 -200 232 -330 224 -318 206 -328 -9 -5 -19 -4 -26 4 -9 8 -8 10 6 5 20 -8 23 5 5 23 -16 16 -31 15 -22 0 5 -9 4 -10 -3 -3 -11 10 -333 469 -347 495 -23 41 24 -18 74 -92z m-853 -405 c-4 -3 -10 -3 -14 0 -3 4 0 7 7 7 7 0 10 -3 7 -7z m140 1 c-3 -3 -12 -4 -19 -1 -8 3 -5 6 6 6 11 1 17 -2 13 -5z m-114 -30 c46 1 52 -1 52 -19 0 -16 -8 -21 -42 -23 -24 -2 -43 -8 -43 -14 0 -5 -7 -7 -17 -4 -10 4 -25 -2 -40 -16 -14 -13 -28 -22 -31 -21 -4 1 -6 -5 -4 -13 2 -7 -3 -24 -9 -36 -16 -30 -23 -79 -24 -154 0 -49 -3 -60 -17 -61 -44 -4 -46 160 -3 251 23 50 79 106 104 106 6 0 12 8 12 18 1 15 2 15 6 1 3 -13 16 -16 56 -15z m207 -134 l0 -67 -30 0 -30 0 0 69 0 68 30 -2 30 -2 0 -66z m340 64 c0 -1 -8 -8 -17 -15 -14 -12 -16 -12 -8 0 5 9 4 12 -3 7 -6 -4 -9 -13 -5 -21 3 -9 -3 -27 -12 -42 -14 -21 -18 -49 -19 -127 -1 -61 -5 -101 -12 -103 -6 -2 -9 9 -7 29 l3 33 -10 -32 c-6 -18 -14 -33 -19 -33 -15 0 -22 85 -11 133 5 26 10 50 9 54 -1 5 -1 14 0 22 1 11 4 11 18 0 14 -12 14 -11 -1 13 -18 27 -18 28 12 58 20 20 39 29 56 28 14 -1 26 -3 26 -4z m-473 -151 c-4 -3 -10 -3 -14 0 -3 4 0 7 7 7 7 0 10 -3 7 -7z m-90 -115 c-3 -8 -6 -5 -6 6 -1 11 2 17 5 13 3 -3 4 -12 1 -19z m0 -251 c-2 -23 -3 -1 -3 48 0 50 1 68 3 42 2 -26 2 -67 0 -90z m18 -87 c3 -5 4 -10 1 -10 -3 0 -8 5 -11 10 -3 6 -4 10 -1 10 3 0 8 -4 11 -10z"/>
<path d="M856 3931 c9 -10 44 -11 44 -1 0 5 -11 9 -25 8 -13 -1 -22 -4 -19 -7z"/>
<path d="M1224 3535 c2 -11 8 -21 14 -23 7 -2 9 -9 6 -15 -5 -8 -2 -7 7 1 11 10 10 16 -8 34 -20 19 -21 19 -19 3z"/>
<path d="M1325 3383 c11 -10 21 -24 22 -30 2 -7 17 -33 35 -58 22 -31 34 -42 36 -31 4 20 -54 101 -87 122 -26 15 -26 15 -6 -3z"/>
<path d="M1516 3122 c-3 -5 11 -32 30 -60 34 -51 55 -71 35 -33 -6 10 -8 21 -6 25 3 3 2 4 -2 1 -3 -3 -14 13 -24 35 -18 41 -24 46 -33 32z"/>
<path d="M1710 2834 c0 -11 85 -123 94 -124 5 0 1 10 -8 23 -9 12 -29 41 -44 65 -24 38 -42 53 -42 36z"/>
<path d="M1755 2430 c3 -5 8 -10 11 -10 3 0 2 5 -1 10 -3 6 -8 10 -11 10 -3 0 -2 -4 1 -10z"/>
<path d="M1982 2415 c0 -16 2 -22 5 -12 2 9 2 23 0 30 -3 6 -5 -1 -5 -18z"/>
<path d="M1858 2363 c7 -3 16 -2 19 1 4 3 -2 6 -13 5 -11 0 -14 -3 -6 -6z"/>
<path d="M1340 2301 c0 -5 9 -7 20 -4 11 3 20 7 20 9 0 2 -9 4 -20 4 -11 0 -20 -4 -20 -9z"/>
<path d="M1500 2306 c0 -2 7 -7 16 -10 8 -3 12 -2 9 4 -6 10 -25 14 -25 6z"/>
<path d="M1822 1638 c-7 -7 -12 -17 -12 -22 0 -6 4 -5 9 3 5 8 17 16 26 17 25 4 31 14 9 14 -11 0 -25 -5 -32 -12z"/>
<path d="M1880 1630 c0 -7 3 -10 7 -7 3 4 3 10 0 14 -4 3 -7 0 -7 -7z"/>
<path d="M1830 1601 c-5 -11 -9 -37 -8 -58 l1 -38 4 34 c3 19 11 45 20 57 9 14 11 24 5 24 -6 0 -16 -9 -22 -19z"/>
<path d="M1981 1564 c0 -11 3 -14 6 -6 3 7 2 16 -1 19 -3 4 -6 -2 -5 -13z"/>
<path d="M2580 1581 c12 -23 30 -36 30 -22 0 10 -27 41 -36 41 -3 0 0 -9 6 -19z"/>
<path d="M2685 1451 c10 -33 62 -114 80 -124 17 -9 -12 44 -58 108 -21 28 -27 33 -22 16z"/>
<path d="M1480 971 c0 -17 5 -33 10 -36 6 -4 10 8 10 29 0 20 -4 36 -10 36 -5 0 -10 -13 -10 -29z"/>
<path d="M1860 1080 c0 -7 3 -10 7 -7 3 4 3 10 0 14 -4 3 -7 0 -7 -7z"/>
<path d="M2130 1030 c0 -7 3 -10 7 -7 3 4 3 10 0 14 -4 3 -7 0 -7 -7z"/>
</g>
<g id="layer106" fill="#3a4555" stroke="none">
<path d="M0 2250 l0 -2250 2250 0 2250 0 0 2250 0 2250 -2250 0 -2250 0 0 -2250z m975 1685 c9 -11 26 -36 39 -55 13 -19 71 -104 130 -188 58 -84 106 -155 106 -158 0 -3 -6 -2 -12 2 -9 5 -9 2 1 -9 15 -18 26 -23 16 -7 -3 6 -4 10 -1 10 2 0 30 -37 61 -82 30 -46 76 -112 102 -147 26 -36 40 -61 32 -57 -8 4 -4 -1 7 -11 28 -23 367 -513 367 -530 0 -6 4 -11 8 -10 4 1 31 -32 59 -73 73 -104 89 -120 121 -120 34 0 38 -6 46 -70 6 -50 6 -50 41 -50 32 0 82 -30 82 -50 0 -3 -97 -6 -216 -7 -120 -1 -221 -6 -226 -11 -5 -5 -8 -22 -6 -38 3 -27 6 -29 56 -32 l52 -3 0 -182 c0 -149 -3 -187 -16 -205 -15 -21 -20 -22 -206 -22 -168 0 -189 -2 -184 -16 3 -9 2 -12 -5 -9 -6 4 -8 13 -5 20 2 7 2 16 -2 19 -3 4 -5 92 -4 196 1 178 0 190 -18 200 -10 5 -33 10 -50 10 -29 0 -31 2 -28 33 l3 32 128 3 c73 1 127 7 127 12 0 6 9 19 20 30 16 16 33 20 80 20 l60 0 0 52 0 53 36 -50 c19 -28 39 -50 45 -49 5 1 41 2 79 3 l70 1 0 29 c0 17 -5 33 -11 36 -6 4 -30 37 -54 74 -24 36 -58 85 -75 109 -17 24 -27 48 -24 54 4 6 2 8 -4 4 -6 -3 -18 4 -26 16 -23 32 -19 47 5 19 11 -13 22 -21 25 -18 8 8 -35 49 -45 43 -4 -3 -21 13 -37 35 -16 22 -39 53 -51 69 -13 15 -23 31 -23 35 0 4 -18 30 -40 58 -23 28 -39 56 -36 64 3 7 2 12 -3 10 -7 -2 -59 63 -114 143 -25 36 -82 117 -120 171 -17 25 -54 78 -82 118 -27 41 -65 94 -83 120 -17 25 -49 70 -70 100 -20 29 -46 66 -57 81 -11 15 -39 54 -61 87 l-42 59 -68 3 c-38 1 -83 3 -101 4 -17 1 -30 4 -29 7 2 3 5 12 8 20 4 12 26 15 106 15 89 0 103 -2 117 -20z m1522 -2102 c-4 -3 -7 0 -7 7 0 7 3 10 7 7 3 -4 3 -10 0 -14z m-17 -28 c-10 -12 13 -49 127 -211 201 -286 222 -318 217 -326 -15 -24 -46 9 -154 167 -11 17 -38 55 -60 85 -22 30 -38 61 -35 68 3 7 1 11 -3 8 -5 -3 -24 16 -43 42 -19 26 -44 61 -57 77 -12 17 -29 44 -38 60 l-17 30 22 -19 c21 -19 21 -19 21 2 0 17 9 27 29 31 2 1 -2 -6 -9 -14z m-501 -17 c1 6 4 12 9 12 4 0 6 -31 4 -70 l-4 -70 40 0 c22 0 44 -6 50 -12 5 -7 11 -85 13 -173 l4 -160 -147 -3 -148 -3 0 165 0 165 31 17 c19 9 41 13 56 9 21 -5 24 -3 19 12 -4 9 -4 41 0 69 6 48 9 53 33 56 16 2 29 -3 33 -12 4 -10 7 -10 7 -2z m-162 6 c-6 -7 -349 -5 -356 1 -2 3 78 5 179 5 101 0 181 -3 177 -6z m386 -1 c-34 -2 -93 -2 -130 0 -37 2 -9 3 62 3 72 0 102 -1 68 -3z m124 0 c-4 -3 -10 -3 -14 0 -3 4 0 7 7 7 7 0 10 -3 7 -7z m61 0 c-10 -2 -26 -2 -35 0 -10 3 -2 5 17 5 19 0 27 -2 18 -5z m-741 -500 c-4 -3 -10 -3 -14 0 -3 4 0 7 7 7 7 0 10 -3 7 -7z m140 1 c-3 -3 -12 -4 -19 -1 -8 3 -5 6 6 6 11 1 17 -2 13 -5z m-119 -21 c29 5 43 3 52 -8 21 -26 4 -45 -40 -45 -22 0 -40 -5 -40 -11 0 -6 -8 -8 -18 -5 -12 4 -27 -3 -42 -19 -12 -13 -27 -22 -31 -19 -5 3 -6 -2 -3 -10 3 -8 -1 -27 -9 -43 -15 -32 -21 -72 -21 -153 0 -51 -3 -56 -23 -58 -29 -2 -35 20 -29 115 5 81 8 96 32 149 16 36 77 94 99 94 8 0 15 8 15 18 0 13 2 14 9 3 6 -10 20 -12 49 -8z m212 -145 l0 -68 -30 0 -30 0 0 70 0 70 30 -2 30 -2 0 -68z m326 52 c-29 -34 -49 -111 -50 -198 -1 -86 -1 -87 -27 -89 -24 -1 -28 2 -33 41 -4 24 -2 64 4 89 5 26 10 50 9 54 -9 58 38 125 85 121 22 -2 23 -4 12 -18z m-459 -137 c-4 -3 -10 -3 -14 0 -3 4 0 7 7 7 7 0 10 -3 7 -7z m-90 -115 c-3 -8 -6 -5 -6 6 -1 11 2 17 5 13 3 -3 4 -12 1 -19z m0 -251 c-2 -23 -3 -1 -3 48 0 50 1 68 3 42 2 -26 2 -67 0 -90z m18 -87 c3 -5 4 -10 1 -10 -3 0 -8 5 -11 10 -3 6 -4 10 -1 10 3 0 8 -4 11 -10z"/>
</g>
<g id="layer107" fill="#5b4338" stroke="none">
<path d="M0 2250 l0 -2250 2250 0 2250 0 0 2250 0 2250 -2250 0 -2250 0 0 -2250z m978 1680 c11 -14 41 -56 67 -95 48 -70 142 -205 265 -381 36 -52 150 -216 254 -366 429 -617 407 -588 447 -588 34 0 38 -6 46 -70 6 -50 6 -50 41 -50 33 0 82 -30 82 -50 0 -4 -97 -7 -216 -8 -125 0 -220 -4 -226 -10 -5 -5 -8 -22 -6 -38 3 -27 6 -29 56 -32 l52 -3 0 -182 c0 -149 -3 -187 -16 -205 -15 -21 -20 -22 -206 -22 -168 0 -189 -2 -184 -16 3 -9 2 -12 -5 -9 -6 4 -8 13 -5 20 2 7 2 16 -2 19 -3 4 -5 92 -4 196 1 178 0 190 -18 200 -10 5 -33 10 -50 10 -29 0 -31 2 -28 33 l3 32 128 3 c73 1 127 7 127 12 0 6 9 19 20 30 16 16 33 20 80 20 l60 0 0 52 0 53 36 -50 c19 -28 39 -50 45 -49 5 1 41 2 79 3 68 1 70 2 70 26 0 14 -15 45 -32 70 -18 24 -49 67 -68 95 -19 28 -52 74 -73 102 -21 28 -36 57 -33 65 3 8 2 12 -3 9 -4 -3 -21 13 -37 35 -16 22 -39 53 -51 69 -13 15 -23 31 -23 35 0 4 -18 30 -40 58 -23 28 -39 56 -36 64 3 7 2 12 -3 10 -7 -2 -59 63 -114 143 -25 36 -82 117 -120 171 -17 25 -54 78 -82 118 -27 41 -65 94 -83 120 -17 25 -49 70 -70 100 -20 29 -46 66 -57 81 -11 15 -39 54 -61 87 l-42 59 -68 3 c-38 1 -83 3 -101 4 -17 1 -30 4 -29 7 2 3 5 12 8 20 4 12 26 15 106 15 95 0 101 -1 120 -25z m1519 -2097 c-4 -3 -7 0 -7 7 0 7 3 10 7 7 3 -4 3 -10 0 -14z m-17 -28 c-10 -12 13 -49 127 -211 201 -286 222 -318 217 -326 -15 -24 -46 9 -154 167 -11 17 -38 55 -60 85 -22 30 -38 61 -35 68 3 7 1 11 -3 8 -5 -3 -24 16 -43 42 -19 26 -44 61 -57 77 -12 17 -29 44 -38 60 l-17 30 22 -19 c21 -19 21 -19 21 2 0 17 9 27 29 31 2 1 -2 -6 -9 -14z m-501 -17 c1 6 4 12 9 12 4 0 6 -31 4 -70 l-4 -70 40 0 c22 0 44 -6 50 -12 10 -14 23 -327 13 -332 -3 -2 -70 -7 -148 -10 l-143 -7 0 170 0 170 31 17 c19 9 41 13 56 9 21 -5 24 -3 19 12 -4 9 -4 41 0 69 6 48 9 53 33 56 16 2 29 -3 33 -12 4 -10 7 -10 7 -2z m-162 6 c-6 -7 -349 -5 -356 1 -2 3 78 5 179 5 101 0 181 -3 177 -6z m386 -1 c-34 -2 -93 -2 -130 0 -37 2 -9 3 62 3 72 0 102 -1 68 -3z m124 0 c-4 -3 -10 -3 -14 0 -3 4 0 7 7 7 7 0 10 -3 7 -7z m61 0 c-10 -2 -26 -2 -35 0 -10 3 -2 5 17 5 19 0 27 -2 18 -5z m-741 -500 c-4 -3 -10 -3 -14 0 -3 4 0 7 7 7 7 0 10 -3 7 -7z m140 1 c-3 -3 -12 -4 -19 -1 -8 3 -5 6 6 6 11 1 17 -2 13 -5z m-112 -19 c49 0 50 -1 50 -30 0 -29 -1 -30 -65 -38 -42 -5 -72 -15 -86 -28 -11 -10 -24 -16 -28 -12 -4 4 -4 0 -1 -9 4 -9 0 -29 -8 -45 -16 -33 -21 -75 -21 -161 1 -37 -3 -58 -7 -50 -7 10 -9 10 -9 1 0 -7 -9 -13 -19 -13 -18 0 -19 7 -16 103 3 102 5 115 31 173 16 36 77 94 99 94 8 0 15 8 15 18 0 9 3 13 8 7 4 -6 30 -10 57 -10z m205 -152 l0 -73 -30 0 -30 0 0 75 0 75 30 -2 30 -2 0 -73z m332 58 c-33 -27 -55 -103 -56 -199 -1 -86 -1 -87 -27 -90 -25 -3 -27 0 -34 47 -4 28 -4 54 -1 59 3 6 8 38 12 73 3 42 13 75 27 96 19 28 28 32 61 31 36 -1 37 -2 18 -17z m-465 -138 c-4 -3 -10 -3 -14 0 -3 4 0 7 7 7 7 0 10 -3 7 -7z m-90 -115 c-3 -8 -6 -5 -6 6 -1 11 2 17 5 13 3 -3 4 -12 1 -19z m0 -251 c-2 -23 -3 -1 -3 48 0 50 1 68 3 42 2 -26 2 -67 0 -90z m18 -87 c3 -5 4 -10 1 -10 -3 0 -8 5 -11 10 -3 6 -4 10 -1 10 3 0 8 -4 11 -10z"/>
<path d="M2726 1397 c3 -10 9 -15 12 -12 3 3 0 11 -7 18 -10 9 -11 8 -5 -6z"/>
</g>
<g id="layer108" fill="#4a494f" stroke="none">
<path d="M0 2250 l0 -2250 2250 0 2250 0 0 2250 0 2250 -2250 0 -2250 0 0 -2250z m982 1676 c12 -17 30 -40 38 -52 27 -40 771 -1105 867 -1242 81 -113 97 -131 116 -127 35 8 51 -10 57 -66 l5 -52 40 -4 c41 -4 60 -15 75 -43 9 -16 -7 -17 -211 -18 -129 0 -225 -4 -231 -10 -5 -5 -8 -22 -6 -38 3 -27 6 -29 56 -32 l52 -3 0 -182 c0 -149 -3 -187 -16 -205 -15 -21 -20 -22 -206 -22 -168 0 -189 -2 -184 -16 3 -9 2 -12 -5 -9 -6 4 -8 13 -5 20 2 7 2 16 -2 19 -3 4 -5 92 -4 196 1 178 0 190 -18 200 -10 5 -33 10 -50 10 -29 0 -31 2 -28 33 l3 32 119 3 120 3 34 35 c32 33 39 35 83 32 l49 -3 2 35 c0 19 1 43 0 53 -1 9 0 17 2 17 2 0 21 -25 42 -55 24 -35 43 -54 52 -50 7 3 43 5 78 5 62 0 64 1 64 25 0 14 -15 45 -32 70 -18 24 -49 67 -68 95 -19 28 -52 74 -73 102 -21 28 -36 57 -33 65 3 8 2 12 -3 9 -4 -3 -21 13 -37 35 -16 22 -39 53 -51 69 -13 15 -23 31 -23 35 0 4 -18 30 -40 58 -23 28 -39 56 -36 64 3 7 2 12 -3 10 -7 -2 -59 63 -114 143 -25 36 -82 117 -120 171 -17 25 -54 78 -82 118 -27 41 -65 94 -83 120 -17 25 -49 70 -70 100 -20 29 -46 66 -57 81 -11 15 -39 54 -61 87 l-42 59 -68 3 c-38 1 -83 3 -101 4 -17 1 -30 4 -29 7 2 3 5 12 8 20 4 12 26 15 106 15 99 0 100 0 124 -29z m1505 -2113 c-19 -19 -26 -5 127 -223 60 -85 110 -166 112 -178 1 -13 6 -27 10 -30 4 -4 4 2 0 13 -6 18 -5 18 7 5 8 -8 31 -41 51 -73 31 -48 34 -58 21 -63 -9 -4 -18 -5 -20 -3 -5 6 -101 138 -125 174 -11 17 -38 55 -60 85 -22 30 -38 61 -35 68 3 7 1 11 -3 8 -5 -3 -24 16 -43 42 -19 26 -44 61 -57 77 -12 17 -29 44 -38 60 l-17 30 22 -19 c21 -19 21 -19 21 1 0 12 7 23 15 27 8 3 15 13 16 23 0 12 2 14 6 5 3 -8 -2 -21 -10 -29z m-508 -25 c1 6 4 12 9 12 4 0 5 -29 4 -65 l-4 -65 35 0 c26 0 41 -7 56 -26 19 -24 21 -40 21 -175 0 -81 -3 -150 -7 -152 -5 -2 -72 -8 -150 -11 l-143 -7 0 170 0 170 31 17 c19 9 41 13 56 9 21 -5 24 -3 19 12 -4 9 -4 41 0 69 6 48 9 53 33 56 16 2 29 -3 33 -12 4 -10 7 -10 7 -2z m-79 3 c0 -8 -411 -4 -435 4 -5 2 90 4 213 4 124 1 222 -3 222 -8z m303 2 c-34 -2 -93 -2 -130 0 -37 2 -9 3 62 3 72 0 102 -1 68 -3z m124 0 c-4 -3 -10 -3 -14 0 -3 4 0 7 7 7 7 0 10 -3 7 -7z m61 0 c-10 -2 -26 -2 -35 0 -10 3 -2 5 17 5 19 0 27 -2 18 -5z m-741 -500 c-4 -3 -10 -3 -14 0 -3 4 0 7 7 7 7 0 10 -3 7 -7z m140 1 c-3 -3 -12 -4 -19 -1 -8 3 -5 6 6 6 11 1 17 -2 13 -5z m-112 -19 c49 0 50 -1 50 -30 0 -29 -1 -30 -65 -38 -42 -5 -72 -15 -86 -28 -11 -10 -24 -16 -28 -12 -4 4 -4 0 -1 -9 4 -9 0 -29 -8 -45 -16 -33 -21 -75 -21 -161 1 -37 -3 -58 -7 -50 -7 10 -9 10 -9 1 0 -7 -9 -13 -19 -13 -18 0 -19 7 -16 103 3 102 5 115 31 173 16 36 77 94 99 94 8 0 15 8 15 18 0 9 3 13 8 7 4 -6 30 -10 57 -10z m205 -152 l0 -73 -30 0 -30 0 0 75 0 75 30 -2 30 -2 0 -73z m332 58 c-33 -27 -55 -103 -56 -199 -1 -86 -1 -87 -27 -90 -25 -3 -27 0 -34 47 -4 28 -4 54 -1 59 3 6 8 38 12 73 3 42 13 75 27 96 19 28 28 32 61 31 36 -1 37 -2 18 -17z m-465 -138 c-4 -3 -10 -3 -14 0 -3 4 0 7 7 7 7 0 10 -3 7 -7z m-90 -115 c-3 -8 -6 -5 -6 6 -1 11 2 17 5 13 3 -3 4 -12 1 -19z m0 -251 c-2 -23 -3 -1 -3 48 0 50 1 68 3 42 2 -26 2 -67 0 -90z m18 -87 c3 -5 4 -10 1 -10 -3 0 -8 5 -11 10 -3 6 -4 10 -1 10 3 0 8 -4 11 -10z"/>
<path d="M2004 1597 c-2 -7 -3 -62 -2 -123 3 -101 4 -109 23 -109 19 0 20 8 23 112 2 104 1 113 -18 123 -16 8 -21 8 -26 -3z"/>
</g>
<g id="layer109" fill="#325b94" stroke="none">
<path d="M0 2250 l0 -2250 2250 0 2250 0 0 2250 0 2250 -2250 0 -2250 0 0 -2250z m948 1704 c13 -4 45 -38 76 -83 29 -42 230 -330 446 -641 535 -769 507 -731 533 -725 35 8 51 -10 57 -66 l5 -52 40 -4 c29 -2 47 -11 66 -33 l25 -30 193 -2 c172 -3 195 -5 205 -20 18 -29 -4 -53 -53 -56 l-41 -3 0 -208 c0 -171 -3 -211 -15 -221 -17 -14 -24 -2 130 -222 235 -337 218 -309 200 -327 -15 -15 -18 -14 -33 9 -10 13 -95 136 -190 272 l-173 248 -212 -2 -212 -3 -3 -57 -3 -58 35 0 c25 0 40 -7 55 -26 19 -24 21 -40 21 -175 0 -81 -3 -150 -7 -152 -5 -2 -72 -8 -150 -11 l-143 -7 0 169 c0 189 2 195 66 196 34 1 34 2 34 46 0 75 7 73 -237 78 -178 3 -221 7 -235 20 -16 13 -18 38 -18 223 l0 208 -41 3 c-49 3 -71 27 -53 56 9 14 30 17 129 20 l117 3 34 35 c31 33 37 36 84 32 l50 -3 2 35 c0 19 0 43 0 53 -3 25 12 14 49 -38 l32 -45 79 0 c73 0 78 1 78 21 0 12 -129 206 -287 433 -158 226 -388 555 -511 731 l-223 320 -42 7 c-23 3 -70 7 -104 7 -67 1 -69 2 -53 32 9 16 22 19 93 19 45 0 92 -3 105 -6z m699 -2661 c-4 -3 -10 -3 -14 0 -3 4 0 7 7 7 7 0 10 -3 7 -7z m140 1 c-3 -3 -12 -4 -19 -1 -8 3 -5 6 6 6 11 1 17 -2 13 -5z m-112 -19 c49 0 50 -1 50 -30 0 -29 -1 -30 -65 -38 -73 -9 -84 -16 -112 -71 -16 -31 -22 -66 -26 -141 l-4 -101 -30 -2 -30 -2 5 102 c6 134 19 173 72 223 68 62 80 72 85 66 3 -4 28 -6 55 -6z m205 -152 l0 -73 -30 0 -30 0 0 75 0 75 30 -2 30 -2 0 -73z m331 53 c-37 -41 -46 -72 -51 -176 -5 -104 -5 -105 -31 -108 -24 -3 -27 1 -33 36 -3 22 -1 72 4 113 5 41 10 79 10 84 0 6 9 25 20 42 17 29 24 33 60 31 40 -1 40 -1 21 -22z m-464 -133 c-4 -3 -10 -3 -14 0 -3 4 0 7 7 7 7 0 10 -3 7 -7z m-90 -115 c-3 -8 -6 -5 -6 6 -1 11 2 17 5 13 3 -3 4 -12 1 -19z m0 -251 c-2 -23 -3 -1 -3 48 0 50 1 68 3 42 2 -26 2 -67 0 -90z m18 -87 c3 -5 4 -10 1 -10 -3 0 -8 5 -11 10 -3 6 -4 10 -1 10 3 0 8 -4 11 -10z"/>
</g>
<g id="layer110" fill="#a55e32" stroke="none">
<path d="M0 2250 l0 -2250 2250 0 2250 0 0 2250 0 2250 -2250 0 -2250 0 0 -2250z m948 1704 c13 -4 45 -38 76 -83 29 -42 230 -330 446 -641 535 -769 507 -731 533 -725 35 8 51 -10 57 -66 l5 -52 40 -4 c29 -2 47 -11 66 -33 l25 -30 193 -2 c172 -3 195 -5 205 -20 18 -29 -4 -53 -53 -56 l-41 -3 0 -208 c0 -171 -3 -211 -15 -221 -17 -14 -24 -2 130 -222 235 -337 218 -309 200 -327 -15 -15 -18 -14 -33 9 -10 13 -95 136 -190 272 l-173 248 -212 -2 -212 -3 -3 -57 -3 -58 35 0 c26 0 40 -7 56 -27 20 -25 21 -37 18 -184 l-3 -156 50 3 c28 2 70 0 95 -4 37 -6 46 -12 48 -31 6 -42 -6 -71 -31 -71 -13 0 -33 -10 -45 -23 -39 -41 -52 -90 -52 -192 l0 -95 65 0 c60 0 66 -2 77 -25 20 -44 -1 -55 -108 -55 -51 0 -96 4 -99 10 -4 6 20 10 65 10 68 0 71 1 68 23 -3 19 -11 23 -64 30 l-62 8 -6 38 c-8 54 12 200 33 236 15 26 25 31 81 40 l65 10 3 36 3 36 -181 8 c-100 4 -184 5 -186 2 -3 -3 -8 -24 -11 -46 l-6 -40 124 -4 124 -3 -132 -2 -133 -2 0 -75 0 -75 51 0 c28 0 59 -5 70 -10 27 -15 49 -63 49 -109 0 -33 4 -40 23 -44 12 -2 0 -4 -26 -4 -59 -2 -81 -17 -66 -45 9 -17 17 -19 50 -14 24 4 39 2 39 -4 0 -5 -4 -10 -10 -10 -6 0 -10 -39 -10 -96 0 -105 -13 -143 -57 -163 -13 -6 -82 -11 -154 -11 l-131 0 -29 29 c-28 29 -29 32 -29 135 l0 106 -44 0 c-25 0 -48 5 -51 10 -3 6 3 10 15 10 28 0 37 28 14 45 -17 13 -15 14 24 15 l42 0 0 51 c0 43 5 55 29 80 26 25 37 29 85 29 l56 0 0 75 0 75 -113 0 c-125 0 -127 -1 -163 -70 -14 -27 -18 -58 -19 -140 l0 -106 -35 1 -35 0 7 105 c3 58 11 122 18 143 13 44 61 102 101 123 16 8 29 21 29 28 0 16 58 28 122 26 24 -1 49 -1 56 -1 9 1 12 41 12 165 0 182 2 189 66 190 34 1 34 2 34 46 0 75 7 73 -237 78 -178 3 -221 7 -235 20 -16 13 -18 38 -18 223 l0 208 -41 3 c-49 3 -71 27 -53 56 9 14 30 17 129 20 l117 3 34 35 c31 33 37 36 84 32 l50 -3 2 35 c0 19 0 43 0 53 -3 25 12 14 49 -38 l32 -45 79 0 c73 0 78 1 78 21 0 12 -129 206 -287 433 -158 226 -388 555 -511 731 l-223 320 -42 7 c-23 3 -70 7 -104 7 -67 1 -69 2 -53 32 9 16 22 19 93 19 45 0 92 -3 105 -6z m439 -3071 c-4 -3 -10 -3 -14 0 -3 4 0 7 7 7 7 0 10 -3 7 -7z m170 0 c-4 -3 -10 -3 -14 0 -3 4 0 7 7 7 7 0 10 -3 7 -7z m-200 -25 c-2 -22 2 -23 93 -28 117 -6 98 -22 -21 -18 l-84 3 -3 33 c-2 18 1 32 7 32 6 0 10 -10 8 -22z"/>
</g>
<g id="layer111" fill="#3b66a3" stroke="none">
<path d="M0 2250 l0 -2250 2250 0 2250 0 0 2250 0 2250 -2250 0 -2250 0 0 -2250z m948 1704 c19 -6 116 -133 246 -324 17 -25 67 -97 112 -160 44 -63 105 -151 136 -195 30 -44 104 -150 163 -235 59 -85 168 -242 242 -348 117 -167 137 -191 156 -187 37 10 59 -15 59 -68 1 -47 1 -47 36 -47 27 0 42 -8 67 -35 l33 -35 199 -2 198 -3 3 -26 c4 -32 -13 -46 -58 -51 l-35 -3 -3 -209 c-1 -135 -6 -214 -14 -223 -11 -13 -1 -31 107 -183 22 -30 84 -120 138 -199 90 -133 96 -146 82 -160 -15 -15 -18 -14 -33 9 -10 13 -95 136 -190 272 l-173 248 -209 0 c-115 0 -211 -3 -213 -7 -3 -5 -2 -32 0 -60 5 -50 7 -53 34 -53 16 0 38 -9 49 -20 20 -20 21 -31 18 -184 l-3 -163 50 3 c28 2 70 0 95 -4 37 -6 46 -12 48 -31 6 -42 -6 -71 -31 -71 -13 0 -33 -10 -45 -23 -39 -41 -52 -90 -52 -192 l0 -95 65 0 c60 0 66 -2 77 -25 20 -44 -1 -55 -108 -55 -51 0 -96 4 -99 10 -4 6 20 10 65 10 68 0 71 1 68 23 -3 19 -11 23 -64 30 l-62 8 -6 38 c-8 54 12 200 33 236 15 26 25 31 81 40 l65 10 3 36 3 36 -181 8 c-100 4 -184 5 -186 2 -3 -3 -8 -24 -11 -46 l-6 -40 124 -4 124 -3 -132 -2 -133 -2 0 -75 0 -75 51 0 c28 0 59 -5 70 -10 27 -15 49 -63 49 -109 0 -33 4 -40 23 -44 12 -2 0 -4 -26 -4 -59 -2 -81 -17 -66 -45 9 -17 17 -19 50 -14 24 4 39 2 39 -4 0 -5 -4 -10 -10 -10 -6 0 -10 -39 -10 -96 0 -105 -13 -143 -57 -163 -13 -6 -82 -11 -154 -11 l-131 0 -29 29 c-28 29 -29 32 -29 135 l0 106 -44 0 c-25 0 -48 5 -51 10 -3 6 3 10 15 10 28 0 37 28 14 45 -17 13 -15 14 24 15 l42 0 0 51 c0 43 5 55 29 80 26 25 37 29 85 29 l56 0 0 75 0 75 -113 0 c-125 0 -127 -1 -163 -70 -14 -27 -18 -58 -19 -140 l0 -106 -35 1 -35 0 7 105 c3 58 11 122 18 143 13 44 61 102 101 123 16 8 29 21 29 28 0 16 58 28 122 26 24 -1 49 -1 56 -1 9 1 12 41 12 165 0 182 2 189 66 190 34 1 34 2 34 46 0 75 7 73 -237 78 -178 3 -221 7 -235 20 -16 13 -18 38 -18 224 l0 208 -38 0 c-41 0 -62 14 -62 41 0 32 25 39 143 40 64 1 117 6 117 11 0 5 11 20 25 33 20 21 34 25 79 25 l55 0 3 53 3 52 40 -52 39 -53 78 0 c73 0 78 1 78 21 0 12 -129 206 -287 433 -158 226 -388 555 -511 731 l-223 320 -42 7 c-23 3 -70 7 -104 7 -67 1 -69 2 -53 32 9 16 22 19 93 19 45 0 92 -3 105 -6z m2535 -101 c-193 -2 -513 -2 -710 0 -197 1 -38 2 352 2 391 0 552 -1 358 -2z m-1036 -280 c-4 -3 -10 -3 -14 0 -3 4 0 7 7 7 7 0 10 -3 7 -7z m140 -140 c-4 -3 -7 0 -7 7 0 7 3 10 7 7 3 -4 3 -10 0 -14z m0 -35 c-3 -8 -6 -5 -6 6 -1 11 2 17 5 13 3 -3 4 -12 1 -19z m3 -98 c0 -22 -3 -40 -8 -40 -4 0 -6 18 -4 40 2 22 6 40 8 40 2 0 4 -18 4 -40z m1267 -472 c-3 -8 -6 -5 -6 6 -1 11 2 17 5 13 3 -3 4 -12 1 -19z m0 -210 c-2 -35 -3 -9 -3 57 0 66 1 94 3 63 2 -32 2 -86 0 -120z m-840 -75 c-4 -3 -7 0 -7 7 0 7 3 10 7 7 3 -4 3 -10 0 -14z m840 -115 c-3 -8 -6 -5 -6 6 -1 11 2 17 5 13 3 -3 4 -12 1 -19z m-620 -245 c-3 -10 -5 -2 -5 17 0 19 2 27 5 18 2 -10 2 -26 0 -35z m620 15 c-3 -8 -6 -5 -6 6 -1 11 2 17 5 13 3 -3 4 -12 1 -19z m-540 -55 c-4 -3 -10 -3 -14 0 -3 4 0 7 7 7 7 0 10 -3 7 -7z m30 -10 c-4 -3 -10 -3 -14 0 -3 4 0 7 7 7 7 0 10 -3 7 -7z m30 -10 c-4 -3 -10 -3 -14 0 -3 4 0 7 7 7 7 0 10 -3 7 -7z m480 -620 c-1 -54 -3 -12 -3 92 0 105 2 149 3 98 2 -51 2 -136 0 -190z m3 -113 c0 -5 -2 -10 -4 -10 -3 0 -8 5 -11 10 -3 6 -1 10 4 10 6 0 11 -4 11 -10z m-2473 -507 c-4 -3 -10 -3 -14 0 -3 4 0 7 7 7 7 0 10 -3 7 -7z m170 0 c-4 -3 -10 -3 -14 0 -3 4 0 7 7 7 7 0 10 -3 7 -7z m-200 -25 c-2 -22 2 -23 93 -28 117 -6 98 -22 -21 -18 l-84 3 -3 33 c-2 18 1 32 7 32 6 0 10 -10 8 -22z"/>
</g>
<g id="layer112" fill="#af6533" stroke="none">
<path d="M0 2250 l0 -2250 2250 0 2250 0 0 2250 0 2250 -2250 0 -2250 0 0 -2250z m948 1704 c19 -6 116 -133 246 -324 17 -25 67 -97 112 -160 44 -63 105 -151 136 -195 30 -44 104 -150 163 -235 59 -85 168 -242 242 -348 117 -167 137 -191 156 -187 37 10 59 -15 59 -68 1 -47 1 -47 36 -47 27 0 42 -8 67 -35 l33 -35 199 -2 198 -3 3 -26 c4 -32 -13 -46 -58 -51 l-35 -3 -3 -209 c-1 -135 -6 -214 -14 -223 -11 -13 -1 -31 107 -183 22 -30 84 -120 138 -199 90 -133 96 -146 82 -160 -15 -15 -18 -14 -33 9 -10 13 -95 136 -190 272 l-173 248 -209 0 c-115 0 -211 -3 -213 -7 -3 -5 -2 -32 0 -60 5 -50 7 -53 34 -53 16 0 38 -9 49 -20 18 -18 20 -33 20 -180 0 -88 3 -160 8 -161 4 0 42 -2 85 -4 43 -1 83 -7 88 -12 6 -6 9 -28 7 -49 -3 -33 -7 -40 -28 -42 -66 -9 -99 -81 -100 -214 l0 -98 65 0 c60 0 66 -2 77 -25 21 -46 0 -55 -133 -55 l-119 0 0 -96 c0 -105 -13 -143 -57 -163 -13 -6 -82 -11 -154 -11 l-131 0 -29 29 c-28 29 -29 32 -29 135 l0 105 -152 3 -153 3 0 35 0 35 56 3 57 3 5 102 c2 56 10 119 16 140 14 44 62 102 102 123 16 8 29 21 29 28 0 16 58 28 122 26 24 -1 49 -1 56 -1 9 1 12 41 12 165 0 182 2 189 66 190 34 1 34 2 34 46 0 75 7 73 -237 78 -178 3 -221 7 -235 20 -16 13 -18 38 -18 224 l0 208 -38 0 c-41 0 -62 14 -62 41 0 32 25 39 143 40 64 1 117 6 117 11 0 5 11 20 25 33 20 21 34 25 79 25 l55 0 3 53 3 52 40 -52 39 -53 78 0 c73 0 78 1 78 21 0 12 -129 206 -287 433 -158 226 -388 555 -511 731 l-223 320 -42 7 c-23 3 -70 7 -104 7 -67 1 -69 2 -53 32 9 16 22 19 93 19 45 0 92 -3 105 -6z m2535 -101 c-193 -2 -513 -2 -710 0 -197 1 -38 2 352 2 391 0 552 -1 358 -2z m-1036 -280 c-4 -3 -10 -3 -14 0 -3 4 0 7 7 7 7 0 10 -3 7 -7z m140 -140 c-4 -3 -7 0 -7 7 0 7 3 10 7 7 3 -4 3 -10 0 -14z m0 -35 c-3 -8 -6 -5 -6 6 -1 11 2 17 5 13 3 -3 4 -12 1 -19z m3 -98 c0 -22 -3 -40 -8 -40 -4 0 -6 18 -4 40 2 22 6 40 8 40 2 0 4 -18 4 -40z m1267 -472 c-3 -8 -6 -5 -6 6 -1 11 2 17 5 13 3 -3 4 -12 1 -19z m0 -210 c-2 -35 -3 -9 -3 57 0 66 1 94 3 63 2 -32 2 -86 0 -120z m-840 -75 c-4 -3 -7 0 -7 7 0 7 3 10 7 7 3 -4 3 -10 0 -14z m840 -115 c-3 -8 -6 -5 -6 6 -1 11 2 17 5 13 3 -3 4 -12 1 -19z m-620 -245 c-3 -10 -5 -2 -5 17 0 19 2 27 5 18 2 -10 2 -26 0 -35z m620 15 c-3 -8 -6 -5 -6 6 -1 11 2 17 5 13 3 -3 4 -12 1 -19z m-540 -55 c-4 -3 -10 -3 -14 0 -3 4 0 7 7 7 7 0 10 -3 7 -7z m30 -10 c-4 -3 -10 -3 -14 0 -3 4 0 7 7 7 7 0 10 -3 7 -7z m30 -10 c-4 -3 -10 -3 -14 0 -3 4 0 7 7 7 7 0 10 -3 7 -7z m480 -620 c-1 -54 -3 -12 -3 92 0 105 2 149 3 98 2 -51 2 -136 0 -190z m3 -113 c0 -5 -2 -10 -4 -10 -3 0 -8 5 -11 10 -3 6 -1 10 4 10 6 0 11 -4 11 -10z"/>
</g>
<g id="layer113" fill="#c2723d" stroke="none">
<path d="M0 2250 l0 -2250 2250 0 2250 0 0 2250 0 2250 -2250 0 -2250 0 0 -2250z m947 1704 c22 -6 105 -115 272 -359 45 -66 120 -174 166 -240 312 -445 510 -728 558 -798 30 -44 43 -56 58 -52 34 11 57 -11 64 -65 7 -48 8 -50 40 -50 30 0 85 -39 85 -60 0 -5 88 -8 194 -8 107 0 200 -3 205 -7 12 -7 14 -35 5 -59 -4 -11 -19 -16 -44 -16 -50 0 -51 -6 -43 -216 5 -148 4 -175 -11 -204 l-16 -33 50 -71 c27 -39 106 -154 175 -255 116 -170 124 -186 109 -200 -14 -15 -17 -14 -32 9 -10 13 -95 136 -190 272 l-173 248 -209 0 c-115 0 -211 -3 -213 -7 -3 -5 -2 -32 0 -60 5 -50 7 -53 34 -53 16 0 38 -9 49 -20 18 -18 20 -33 20 -180 0 -88 3 -160 8 -161 4 0 42 -2 85 -4 43 -1 83 -7 88 -12 6 -6 9 -28 7 -49 -3 -33 -7 -40 -28 -42 -66 -9 -99 -81 -100 -214 l0 -98 65 0 c60 0 66 -2 77 -25 21 -46 0 -55 -133 -55 l-119 0 0 -96 c0 -105 -13 -143 -57 -163 -13 -6 -82 -11 -154 -11 l-131 0 -29 29 c-28 29 -29 32 -29 135 l0 105 -152 3 -153 3 0 35 0 35 56 3 57 3 5 102 c2 56 10 119 16 140 14 44 62 102 102 123 16 8 29 21 29 28 0 16 58 28 122 26 24 -1 49 -1 56 -1 9 1 12 41 12 165 0 182 2 189 66 190 34 1 34 2 34 46 0 75 7 73 -237 78 -178 3 -221 7 -235 20 -16 13 -18 38 -18 223 l0 208 -41 3 c-49 3 -71 27 -53 56 9 14 32 18 128 24 114 7 118 8 145 37 26 27 36 31 84 31 l56 0 3 53 3 52 40 -52 39 -53 78 0 c73 0 78 1 78 21 0 12 -129 206 -287 433 -158 226 -388 555 -511 731 l-223 320 -42 7 c-23 3 -70 7 -104 7 -67 1 -69 2 -53 32 9 16 22 19 93 19 45 0 92 -3 104 -6z m-166 -111 c12 -16 12 -17 -1 -6 -8 6 -26 13 -40 16 l-25 4 26 2 c15 0 33 -7 40 -16z m1262 10 c-156 -2 -410 -2 -565 0 -156 1 -29 2 282 2 311 0 438 -1 283 -2z m1817 -1233 c0 -1206 -1 -1240 -19 -1240 -10 0 -23 6 -29 13 -6 7 -45 24 -86 37 l-75 23 -3 145 -3 145 -80 24 c-142 43 -130 26 -132 187 -1 76 -4 140 -6 143 -2 2 -49 18 -103 37 l-99 33 -5 142 -5 142 -55 20 c-30 11 -75 26 -100 33 l-45 12 -3 141 c-2 96 -6 144 -15 151 -6 5 -55 23 -107 40 l-95 30 -5 144 -5 143 -105 35 -105 36 -5 143 -5 143 -59 24 c-33 13 -65 24 -71 24 -7 0 -26 7 -43 16 l-32 15 0 130 0 129 750 0 750 0 0 -1240z m-2695 680 c3 -5 4 -10 1 -10 -3 0 -8 5 -11 10 -3 6 -4 10 -1 10 3 0 8 -4 11 -10z m135 -755 c0 -14 -4 -25 -10 -25 -11 0 -14 33 -3 43 11 11 13 8 13 -18z"/>
</g>
<g id="layer114" fill="#e0905a" stroke="none">
<path d="M0 2250 l0 -2250 2250 0 2250 0 0 2250 0 2250 -2250 0 -2250 0 0 -2250z m952 1701 c13 -5 36 -27 51 -50 l27 -41 1415 0 1415 0 0 -1240 c0 -1187 -1 -1240 -18 -1240 -10 0 -22 4 -27 9 -6 5 -44 21 -86 35 l-76 26 -466 0 c-257 0 -467 -3 -467 -6 0 -3 25 -42 56 -87 51 -74 54 -81 39 -96 -15 -15 -18 -14 -33 9 -10 13 -95 136 -190 272 l-173 248 -212 -2 c-204 -3 -212 -4 -212 -23 0 -19 8 -20 139 -25 l140 -5 68 -95 c85 -117 128 -179 128 -186 0 -3 -83 -4 -185 -2 l-185 3 0 -72 c0 -40 3 -73 8 -74 4 0 42 -2 85 -4 43 -1 83 -7 88 -12 6 -6 9 -28 7 -49 -3 -33 -7 -40 -28 -42 -66 -9 -99 -81 -100 -214 l0 -98 65 0 c60 0 66 -2 77 -25 21 -46 0 -55 -133 -55 l-119 0 0 -96 c0 -105 -13 -143 -57 -163 -13 -6 -82 -11 -154 -11 l-131 0 -29 29 c-28 29 -29 32 -29 135 l0 105 -152 3 -153 3 0 35 0 35 56 3 57 3 5 102 c2 56 10 119 16 140 14 44 62 102 102 123 16 8 29 21 29 28 0 16 58 28 122 26 24 -1 49 -1 56 -1 9 1 12 41 12 165 0 182 2 189 66 190 34 1 34 2 34 46 0 75 7 73 -237 78 -178 3 -221 7 -235 20 -16 13 -18 38 -18 223 l0 208 -41 3 c-49 3 -71 27 -53 56 9 14 28 18 98 20 l86 3 0 59 0 60 114 0 115 0 3 28 c3 26 4 26 43 -25 l39 -53 78 0 c73 0 78 1 78 21 0 12 -129 206 -287 433 -158 226 -388 555 -511 731 l-223 320 -42 7 c-23 3 -70 7 -104 7 -67 1 -69 2 -53 32 9 16 22 19 95 19 46 0 94 -4 107 -9z m-139 -149 c24 -32 66 -92 95 -134 l52 -77 -150 -3 c-83 -2 -155 -1 -160 0 -6 2 -10 60 -10 140 l0 137 65 -3 65 -4 43 -56z m297 -419 c52 -75 96 -139 98 -143 2 -5 -78 -8 -178 -9 l-180 -1 0 138 c0 76 3 142 7 145 3 4 40 7 82 7 l76 0 95 -137z m174 -248 c36 -49 162 -229 170 -242 6 -10 -35 -13 -188 -13 l-196 0 0 139 c0 161 -12 146 119 146 70 0 74 -1 95 -30z m316 -444 c101 -145 128 -187 112 -177 -7 4 -107 7 -222 6 l-210 -1 0 139 c0 76 3 142 7 146 4 4 58 6 119 5 l112 -3 82 -115z"/>
<path d="M1220 3590 c0 -3 12 -20 28 -38 l27 -33 640 3 640 3 -80 30 -80 30 -588 5 c-323 3 -587 3 -587 0z"/>
<path d="M1480 3230 c-5 -3 4 -20 18 -38 l27 -32 625 2 625 3 -96 33 -96 33 -547 2 c-301 1 -552 0 -556 -3z"/>
<path d="M1729 2863 c32 -60 -14 -55 572 -54 294 1 566 1 604 2 l70 0 -90 34 -90 34 -538 0 c-509 1 -537 0 -528 -16z"/>
<path d="M1975 2510 c3 -5 10 -10 16 -10 5 0 9 5 9 10 0 6 -7 10 -16 10 -8 0 -12 -4 -9 -10z"/>
<path d="M2038 2503 c12 -8 22 -24 22 -34 0 -18 19 -19 573 -18 l572 0 -80 32 -80 31 -515 3 c-473 2 -513 1 -492 -14z"/>
<path d="M2505 2161 c-10 -10 -4 -62 8 -66 6 -3 215 -4 462 -3 l450 3 -98 34 -98 33 -360 2 c-198 1 -362 0 -364 -3z"/>
<path d="M2484 1799 c-3 -6 2 -23 13 -37 l20 -27 548 3 c302 1 550 3 552 5 1 2 -41 18 -95 35 l-97 32 -467 0 c-329 0 -469 -3 -474 -11z"/>
</g>
<g id="layer115" fill="#b0b7bb" stroke="none">
<path d="M0 2250 l0 -2250 2250 0 2250 0 0 2250 0 2250 -2250 0 -2250 0 0 -2250z m952 1701 c13 -5 36 -27 51 -50 l27 -41 1415 0 1415 0 0 -1240 0 -1240 -551 0 -551 0 37 -51 c34 -48 36 -53 20 -68 -16 -15 -18 -14 -33 9 -10 13 -95 136 -190 272 l-173 248 -91 0 -90 0 18 -27 c29 -46 232 -327 248 -345 35 -39 25 -41 -194 -33 l-210 7 0 -41 c0 -23 3 -41 8 -42 4 0 42 -2 85 -4 43 -1 83 -7 88 -12 6 -6 9 -28 7 -49 -3 -33 -7 -40 -28 -42 -66 -9 -99 -81 -100 -214 l0 -98 65 0 c60 0 66 -2 77 -25 21 -46 0 -55 -133 -55 l-119 0 0 -96 c0 -105 -13 -143 -57 -163 -13 -6 -82 -11 -154 -11 l-131 0 -29 29 c-28 29 -29 32 -29 135 l0 105 -152 3 -153 3 0 35 0 35 56 3 57 3 5 102 c2 56 10 119 16 140 14 44 62 102 102 123 16 8 29 21 29 28 0 16 58 28 122 26 24 -1 49 -1 56 -1 9 1 12 41 12 165 0 182 2 189 66 190 34 1 34 1 34 48 0 43 -2 47 -32 59 -21 8 -104 14 -228 17 -159 3 -198 7 -212 19 -16 14 -18 39 -18 224 l0 208 -41 3 c-49 3 -71 27 -53 56 9 14 28 18 98 20 l87 3 -3 61 -3 62 -107 40 -108 40 0 142 0 142 -102 34 -103 35 -5 144 -5 144 -78 26 c-43 15 -81 29 -84 33 -3 3 -17 6 -29 6 -23 0 -23 1 -26 147 l-3 146 -102 35 -103 34 0 136 0 137 66 -3 65 -4 83 -111 c45 -62 100 -139 122 -172 22 -33 83 -120 135 -192 87 -123 131 -186 326 -465 40 -57 100 -141 134 -188 34 -47 80 -112 102 -145 22 -33 63 -90 91 -127 l51 -68 77 0 c73 0 78 1 78 21 0 12 -129 206 -287 433 -158 226 -388 555 -511 731 l-223 320 -42 7 c-23 3 -70 7 -104 7 -67 1 -69 2 -53 32 9 16 22 19 95 19 46 0 94 -4 107 -9z"/>
<path d="M1578 1183 c-38 -44 -51 -89 -56 -190 l-5 -103 67 0 66 0 0 51 c0 43 5 55 29 80 26 25 37 29 85 29 l56 0 0 75 0 75 -113 0 c-96 0 -116 -3 -129 -17z"/>
<path d="M1880 1125 l0 -75 51 0 c28 0 59 -5 70 -10 28 -15 49 -63 49 -110 0 -37 2 -41 23 -38 18 2 22 9 20 33 -3 56 18 207 32 236 8 15 15 30 15 34 0 3 -58 5 -130 5 l-130 0 0 -75z"/>
</g>
<g id="layer116" fill="#afbbc4" stroke="none">
<path d="M0 2250 l0 -2250 2250 0 2250 0 0 2250 0 2250 -2250 0 -2250 0 0 -2250z m999 1660 l34 -50 1414 0 1413 0 0 -1240 0 -1240 -545 0 c-300 0 -545 -4 -545 -9 0 -4 14 -25 30 -46 34 -42 35 -46 18 -63 -19 -19 -24 -15 -64 41 -21 28 -42 57 -47 62 -16 17 10 -28 37 -64 31 -42 32 -51 6 -44 -17 5 -196 245 -345 463 -38 56 -77 82 -96 63 -4 -4 7 -29 24 -54 122 -175 131 -190 95 -156 -8 6 -29 26 -48 42 l-34 30 27 -37 c15 -20 27 -39 27 -42 0 -2 14 -20 30 -38 17 -18 30 -36 30 -40 0 -5 8 -17 18 -27 9 -10 29 -33 44 -49 29 -33 44 -32 26 2 -17 34 -1 14 58 -70 45 -66 52 -80 37 -83 -22 -4 -95 78 -88 99 4 8 3 11 -1 7 -4 -4 -12 -3 -18 2 -6 5 -107 12 -223 16 l-213 7 0 -41 0 -40 93 -3 92 -3 0 -49 c0 -46 -2 -50 -29 -57 -66 -18 -96 -88 -96 -226 l0 -83 65 0 c60 0 66 -2 77 -25 21 -46 0 -55 -133 -55 l-119 0 0 -96 c0 -105 -13 -143 -57 -163 -13 -6 -82 -11 -154 -11 l-131 0 -29 29 c-28 29 -29 32 -29 135 l0 106 -150 0 c-139 0 -150 1 -160 20 -8 14 -8 26 0 40 9 16 21 20 64 20 l53 0 5 113 c6 139 30 196 101 240 25 16 47 38 50 49 5 17 13 19 89 17 l83 -2 5 160 c4 142 7 164 25 183 14 16 28 21 52 18 l33 -4 0 47 c0 44 -2 48 -32 60 -22 8 -104 14 -233 16 -170 4 -202 7 -212 21 -10 11 -13 73 -13 223 l0 208 -41 3 c-49 3 -71 27 -53 56 9 14 28 18 98 20 l87 3 -3 61 -3 62 -107 40 -108 40 0 142 0 142 -102 34 -103 35 -5 144 -5 144 -78 26 c-43 15 -81 29 -84 33 -3 3 -17 6 -29 6 -23 0 -23 1 -26 147 l-3 146 -102 35 -103 34 0 136 0 137 60 -3 c62 -4 70 2 51 37 -6 10 -7 27 -4 39 5 21 11 22 112 22 l106 0 34 -50z"/>
<path d="M823 3903 c-24 -5 -30 -18 -13 -28 7 -4 93 -128 133 -191 4 -7 2 -16 -4 -20 -8 -4 -9 -3 -5 4 4 7 2 12 -3 12 -6 0 -11 -3 -11 -6 0 -8 105 -163 131 -194 l21 -25 -16 25 c-9 14 -19 32 -22 40 -15 40 -28 59 -36 54 -9 -6 -11 10 -2 19 7 7 40 -30 91 -105 21 -31 74 -106 118 -168 44 -62 87 -122 95 -134 16 -24 125 -177 193 -271 103 -144 149 -216 144 -222 -4 -3 -25 14 -49 38 -23 24 -37 37 -31 29 27 -41 116 -160 120 -160 6 0 -18 43 -36 64 -13 16 -14 18 -1 14 15 -4 210 -255 210 -270 0 -14 -23 -9 -44 10 -21 17 -21 17 -2 -5 16 -20 29 -23 87 -23 60 0 68 2 74 21 5 15 1 27 -14 40 -11 11 -16 14 -11 7 15 -18 12 -58 -4 -58 -15 0 -261 334 -454 616 -27 40 -102 146 -167 235 -65 90 -146 202 -180 249 -34 47 -86 120 -116 163 -30 43 -78 111 -107 150 l-52 72 32 5 33 6 -34 7 c-18 4 -36 6 -40 6 -3 -1 -16 -4 -28 -6z"/>
<path d="M945 3880 c3 -5 8 -10 11 -10 3 0 2 5 -1 10 -3 6 -8 10 -11 10 -3 0 -2 -4 1 -10z"/>
<path d="M965 3850 c3 -5 8 -10 11 -10 3 0 2 5 -1 10 -3 6 -8 10 -11 10 -3 0 -2 -4 1 -10z"/>
<path d="M836 3780 c20 -28 40 -53 46 -56 12 -8 -11 34 -34 60 -10 11 -18 23 -18 27 0 4 -7 9 -15 12 -8 4 2 -16 21 -43z"/>
<path d="M1085 3680 c3 -5 8 -10 11 -10 3 0 2 5 -1 10 -3 6 -8 10 -11 10 -3 0 -2 -4 1 -10z"/>
<path d="M1105 3650 c3 -5 8 -10 11 -10 3 0 2 5 -1 10 -3 6 -8 10 -11 10 -3 0 -2 -4 1 -10z"/>
<path d="M1140 3600 c12 -16 24 -30 26 -30 3 0 -4 14 -16 30 -12 17 -24 30 -26 30 -3 0 4 -13 16 -30z"/>
<path d="M1175 3550 c3 -5 8 -10 11 -10 3 0 2 5 -1 10 -3 6 -8 10 -11 10 -3 0 -2 -4 1 -10z"/>
<path d="M1195 3520 c3 -5 8 -10 11 -10 3 0 2 5 -1 10 -3 6 -8 10 -11 10 -3 0 -2 -4 1 -10z"/>
<path d="M1245 3450 c3 -5 8 -10 11 -10 3 0 2 5 -1 10 -3 6 -8 10 -11 10 -3 0 -2 -4 1 -10z"/>
<path d="M1265 3420 c3 -5 8 -10 11 -10 3 0 2 5 -1 10 -3 6 -8 10 -11 10 -3 0 -2 -4 1 -10z"/>
<path d="M1280 3396 c0 -2 8 -10 18 -17 15 -13 16 -12 3 4 -13 16 -21 21 -21 13z"/>
<path d="M1110 3386 c0 -2 8 -10 18 -17 15 -13 16 -12 3 4 -13 16 -21 21 -21 13z"/>
<path d="M1219 3245 c6 -11 20 -31 31 -45 17 -20 19 -21 11 -4 -6 12 -7 24 -4 28 3 3 0 6 -7 6 -7 0 -19 8 -27 18 -13 16 -13 15 -4 -3z"/>
<path d="M1385 3250 c3 -5 8 -10 11 -10 3 0 2 5 -1 10 -3 6 -8 10 -11 10 -3 0 -2 -4 1 -10z"/>
<path d="M1405 3220 c3 -5 8 -10 11 -10 3 0 2 5 -1 10 -3 6 -8 10 -11 10 -3 0 -2 -4 1 -10z"/>
<path d="M1429 3183 c6 -10 22 -31 36 -48 22 -25 22 -23 -5 18 -30 45 -51 66 -31 30z"/>
<path d="M1286 3145 c9 -14 21 -25 27 -25 6 0 0 11 -13 25 -13 14 -25 25 -27 25 -2 0 4 -11 13 -25z"/>
<path d="M1330 3080 c12 -16 24 -30 27 -30 3 0 0 7 -7 15 -7 8 -9 15 -6 15 4 0 1 7 -8 15 -25 25 -29 17 -6 -15z"/>
<path d="M1495 3090 c3 -5 8 -10 11 -10 3 0 2 5 -1 10 -3 6 -8 10 -11 10 -3 0 -2 -4 1 -10z"/>
<path d="M1525 3050 c3 -5 8 -10 11 -10 3 0 2 5 -1 10 -3 6 -8 10 -11 10 -3 0 -2 -4 1 -10z"/>
<path d="M1374 3028 c-4 -7 -3 -8 4 -4 12 7 16 16 8 16 -3 0 -8 -5 -12 -12z"/>
<path d="M1545 3020 c3 -5 8 -10 11 -10 3 0 2 5 -1 10 -3 6 -8 10 -11 10 -3 0 -2 -4 1 -10z"/>
<path d="M1580 2970 c12 -16 24 -30 26 -30 3 0 -4 14 -16 30 -12 17 -24 30 -26 30 -3 0 4 -13 16 -30z"/>
<path d="M1615 2920 c3 -5 8 -10 11 -10 3 0 2 5 -1 10 -3 6 -8 10 -11 10 -3 0 -2 -4 1 -10z"/>
<path d="M1785 2680 c3 -5 8 -10 11 -10 3 0 2 5 -1 10 -3 6 -8 10 -11 10 -3 0 -2 -4 1 -10z"/>
<path d="M1805 2650 c3 -5 8 -10 11 -10 3 0 2 5 -1 10 -3 6 -8 10 -11 10 -3 0 -2 -4 1 -10z"/>
<path d="M1710 2540 c6 -11 13 -20 16 -20 2 0 0 9 -6 20 -6 11 -13 20 -16 20 -2 0 0 -9 6 -20z"/>
<path d="M1755 2480 c3 -5 8 -10 11 -10 3 0 2 5 -1 10 -3 6 -8 10 -11 10 -3 0 -2 -4 1 -10z"/>
<path d="M1775 2450 c3 -5 8 -10 11 -10 3 0 2 5 -1 10 -3 6 -8 10 -11 10 -3 0 -2 -4 1 -10z"/>
<path d="M2270 1746 c0 -2 8 -10 18 -17 15 -13 16 -12 3 4 -13 16 -21 21 -21 13z"/>
<path d="M2495 1660 c3 -5 8 -10 11 -10 3 0 2 5 -1 10 -3 6 -8 10 -11 10 -3 0 -2 -4 1 -10z"/>
<path d="M2550 1580 c12 -16 24 -30 26 -30 3 0 -4 14 -16 30 -12 17 -24 30 -26 30 -3 0 4 -13 16 -30z"/>
<path d="M2585 1530 c3 -5 8 -10 11 -10 3 0 2 5 -1 10 -3 6 -8 10 -11 10 -3 0 -2 -4 1 -10z"/>
<path d="M2600 1506 c0 -2 8 -10 18 -17 15 -13 16 -12 3 4 -13 16 -21 21 -21 13z"/>
<path d="M2685 1390 c3 -5 8 -10 11 -10 3 0 2 5 -1 10 -3 6 -8 10 -11 10 -3 0 -2 -4 1 -10z"/>
<path d="M2620 1280 c0 -5 5 -10 11 -10 5 0 7 5 4 10 -3 6 -8 10 -11 10 -2 0 -4 -4 -4 -10z"/>
<path d="M1578 1173 c-43 -46 -51 -74 -56 -181 l-5 -103 64 3 c68 3 66 1 68 65 0 18 12 44 25 60 20 23 34 29 82 33 l59 5 3 73 3 72 -109 0 c-105 0 -109 -1 -134 -27z"/>
<path d="M1880 1126 l0 -75 49 1 c82 2 121 -37 121 -123 0 -32 3 -39 20 -39 18 0 20 7 20 73 1 73 18 166 39 205 6 11 11 23 11 26 0 3 -58 6 -130 6 l-130 0 0 -74z"/>
</g>
<g id="layer117" fill="#cad2d6" stroke="none">
<path d="M0 2250 l0 -2250 2250 0 2250 0 0 2250 0 2250 -2250 0 -2250 0 0 -2250z m999 1660 l34 -50 1414 0 1413 0 0 -1240 0 -1240 -545 0 c-300 0 -545 -4 -545 -9 0 -4 14 -25 30 -46 17 -21 30 -41 30 -45 0 -26 -80 -39 -102 -17 -7 8 -35 46 -63 86 -27 40 -61 87 -75 106 -14 18 -42 57 -63 86 -161 230 -168 239 -198 239 -28 0 -25 -5 99 -179 70 -98 153 -215 184 -260 l57 -81 -28 0 c-22 0 -35 12 -69 60 l-43 60 -72 0 c-40 0 -136 3 -214 7 l-143 6 0 -41 0 -42 90 0 c89 0 91 0 101 -27 15 -41 2 -83 -25 -83 -66 0 -106 -87 -106 -227 l0 -83 65 0 c60 0 66 -2 77 -25 21 -46 0 -55 -133 -55 l-119 0 0 -98 c0 -76 -4 -103 -17 -122 -32 -47 -41 -49 -184 -50 -122 0 -139 2 -162 20 -34 27 -47 76 -47 173 l0 77 -145 0 c-145 0 -145 0 -157 25 -17 38 4 55 67 55 l52 0 5 113 c6 137 33 202 98 239 22 13 42 33 45 46 5 22 9 23 93 21 l87 -2 5 160 c4 142 7 164 25 183 14 16 28 21 52 18 l33 -4 0 47 c0 44 -2 48 -32 60 -22 8 -104 14 -233 16 -170 4 -202 7 -212 21 -10 11 -13 73 -13 223 l0 208 -41 3 c-49 3 -71 27 -53 56 9 14 28 18 98 20 l87 3 -3 61 -3 62 -107 40 -108 40 0 142 0 142 -102 34 -103 35 -5 144 -5 144 -78 26 c-43 15 -81 29 -84 33 -3 3 -17 6 -29 6 -23 0 -23 1 -26 147 l-3 146 -102 35 -103 34 0 136 0 137 60 -3 c62 -4 70 2 51 37 -6 10 -7 27 -4 39 5 21 11 22 112 22 l106 0 34 -50z"/>
<path d="M810 3895 c0 -7 63 -100 149 -220 44 -60 125 -175 181 -255 56 -80 125 -178 153 -218 87 -121 298 -420 367 -518 36 -51 94 -132 128 -180 35 -48 66 -93 69 -100 3 -8 20 -14 39 -14 35 0 35 0 16 20 -11 12 -37 46 -58 78 -21 31 -75 107 -119 167 -45 61 -159 220 -255 355 -95 135 -189 268 -210 295 -20 28 -116 161 -213 297 -212 300 -211 298 -231 298 -9 0 -16 -2 -16 -5z"/>
<path d="M1571 1165 c-38 -44 -44 -67 -45 -180 l-1 -90 56 -3 56 -3 6 53 c9 74 44 107 121 115 l57 6 -3 66 -3 66 -106 3 -106 3 -32 -36z"/>
<path d="M1887 1193 c-4 -3 -7 -35 -7 -70 l0 -63 35 0 c47 0 98 -22 119 -51 9 -14 16 -43 16 -71 0 -41 3 -48 20 -48 18 0 20 7 20 73 1 73 18 166 39 205 6 11 11 23 11 26 0 8 -245 7 -253 -1z"/>
</g>
<g id="layer118" fill="#ffffff" stroke="none">
<path d="M0 2250 l0 -2250 2250 0 2250 0 0 2250 0 2250 -2250 0 -2250 0 0 -2250z m1001 1660 l31 -50 1414 0 1414 0 0 -1240 0 -1240 -545 0 c-300 0 -545 -2 -545 -5 0 -2 14 -25 32 -49 42 -60 30 -76 -56 -76 -118 0 -133 6 -179 71 l-41 59 -70 0 c-39 0 -135 3 -213 7 l-143 6 0 -41 0 -41 92 -3 c91 -3 93 -3 102 -31 16 -44 -3 -81 -41 -85 -62 -6 -93 -83 -93 -227 l0 -74 73 -3 c67 -3 72 -5 75 -26 7 -45 -11 -52 -139 -52 l-119 0 0 -104 c0 -89 -3 -107 -20 -129 -28 -35 -76 -47 -185 -46 -111 0 -152 14 -182 58 -20 29 -23 47 -23 127 l0 94 -144 0 c-156 0 -174 6 -162 54 5 22 12 25 64 28 l57 3 1 70 c4 152 41 250 109 282 20 9 36 26 40 40 6 23 8 24 93 22 l87 -2 5 159 c3 87 10 167 14 177 9 20 47 32 76 24 18 -5 20 0 20 43 0 47 -1 49 -37 61 -26 8 -100 12 -226 11 -174 -1 -189 0 -207 18 -19 19 -20 35 -20 230 l0 210 -38 0 c-60 0 -82 39 -43 74 16 14 34 17 96 14 l76 -3 -3 60 -3 59 -107 40 -108 40 0 142 0 142 -102 34 -103 35 -5 144 -5 144 -78 26 c-43 15 -81 29 -84 33 -3 3 -17 6 -29 6 -23 0 -23 1 -26 147 l-3 146 -102 35 -103 34 0 136 0 137 60 -3 c62 -4 69 1 47 32 -11 14 -11 24 -3 42 11 23 15 24 119 24 l107 0 31 -50z"/>
<path d="M1574 1169 c-13 -14 -29 -40 -34 -58 -13 -48 -23 -166 -16 -195 6 -24 11 -26 61 -26 l55 0 0 35 c0 84 49 135 130 135 l40 0 0 64 0 65 -106 3 c-102 3 -106 2 -130 -23z"/>
<path d="M1888 1126 l-3 -64 53 -4 c72 -6 104 -38 112 -110 4 -40 9 -54 23 -56 15 -3 17 5 17 66 0 80 14 163 34 204 l14 28 -123 0 -123 0 -4 -64z"/>
</g>


</svg>